<?xml version="1.0" encoding="utf-8"?>
<!-- Generator: Adobe Illustrator 26.0.3, SVG Export Plug-In . SVG Version: 6.00 Build 0)  -->
<svg version="1.1" id="Layer_1" xmlns="http://www.w3.org/2000/svg" xmlns:xlink="http://www.w3.org/1999/xlink" x="0px" y="0px"
	 viewBox="0 0 1000 1000" style="enable-background:new 0 0 1000 1000;" xml:space="preserve">
<style type="text/css">
	.st0{fill:url(#SVGID_1_);stroke:#1C75BC;stroke-width:10;stroke-miterlimit:10;}
	.st1{display:none;fill:none;}
	.st2{fill:#E67C52;}
	.st3{fill:#FBB672;}
	.st4{fill:url(#SVGID_00000152225706722753326010000003820143060225110184_);}
	.st5{fill:none;}
	.st6{fill:url(#SVGID_00000138550942524475575450000015327869705235443341_);}
	.st7{fill:#F3AC6C;}
	.st8{fill:#B3544A;}
	.st9{fill:#C35B4B;}
	.st10{fill:#D46D51;}
	.st11{fill:#F3DBB8;}
	.st12{fill:#E5D3A9;}
	.st13{fill:#358E8F;}
	.st14{fill:#FFDF81;}
	.st15{display:none;fill:#FBB672;}
	.st16{fill:#1C75BC;}
	.st17{fill:none;stroke:#1C75BC;stroke-width:10;stroke-miterlimit:10;}
</style>
<linearGradient id="SVGID_1_" gradientUnits="userSpaceOnUse" x1="301.3874" y1="765.8235" x2="774.001" y2="-66.304" gradientTransform="matrix(-0.8695 0.4939 -0.4939 -0.8695 1140.2799 538.6074)">
	<stop  offset="0" style="stop-color:#358E8F"/>
	<stop  offset="1" style="stop-color:#FFDF81"/>
</linearGradient>
<path class="st0" d="M104.08,237.23L467.89,30.04c19.9-11.33,44.31-11.33,64.21,0l363.81,207.19
	c20.26,11.54,32.77,33.06,32.77,56.38l0,412.84c0,23.32-12.51,44.84-32.77,56.38L532.11,970.01c-19.9,11.33-44.31,11.33-64.21,0
	L104.08,762.82c-20.26-11.54-32.77-33.06-32.77-56.38l0-412.84C71.31,270.29,83.82,248.76,104.08,237.23z"/>
<path class="st1" d="M1304.95,1255.22c-112.62,310.48-759.06,430.36-1178.14,195.66c-169.22-94.77-399.91-302.54-361.86-478.6
	c21.44-99.18,114.35-124.42,283.01-201.22c11.23-5.12,22.8-10.46,34.71-16.07c18.16,10.58,26.84,16.97,33.35,19.25
	c2.26,0.79,33.09,18.76,94.73,54.69c43.48,25.34,79.31,46.1,111.51,64.68c59.7,34.45,106.91,61.42,167.21,96.24
	c6.19,3.57,13.81,3.57,20,0l321.09-185.38l53.42-30.84l34.19-19.74c6.18-3.57,10-10.18,10-17.32V446.03
	c122.51,89.75,210.46,243.6,246.34,306.38C1257.88,898.27,1365.89,1087.22,1304.95,1255.22z"/>
<path class="st2" d="M-130.46,908.27c-2.4-1.39-4.81-2.8-7.26-4.22C-135.27,905.48-132.85,906.88-130.46,908.27z"/>
<path class="st3" d="M928.17,437.01v290.54c0,7.14-3.82,13.75-10,17.32l-34.19,19.74l-53.42,30.84L509.47,980.83
	c-6.19,3.57-13.81,3.57-20,0c-60.3-34.82-107.51-61.79-167.21-96.24c-32.2-18.58-68.03-39.34-111.51-64.68
	c-61.64-35.93-92.47-53.9-94.73-54.69c-6.51-2.28-15.19-8.67-33.35-19.25c103.81-48.91,233.25-118.02,389.16-231.9
	c170.33-124.41,206.49-158.39,259.91-144.94c10,2.52,19.68,6.58,31.76,11.9c22.11,9.74,52.21,23.72,106.84,40.26
	C894.52,428.6,914.69,433.76,928.17,437.01z"/>
<linearGradient id="SVGID_00000152944796546130630850000005435811966855498943_" gradientUnits="userSpaceOnUse" x1="82.67" y1="630.4182" x2="890.7926" y2="630.4182">
	<stop  offset="0.2894" style="stop-color:#FBB672"/>
	<stop  offset="1" style="stop-color:#E67C52"/>
</linearGradient>
<path style="fill:url(#SVGID_00000152944796546130630850000005435811966855498943_);" d="M600.17,875.93
	c-93.66,28.68-198.03,22.9-301.13-4.75c-26.14-15.12-54.97-31.85-88.29-51.27c-61.64-35.93-92.47-53.9-94.73-54.69
	c-6.51-2.28-15.19-8.67-33.35-19.25c35.57-43.01,92.5-100.25,176.72-142.24c45.02-22.45,47.24-15.31,103.31-41.42
	c131.09-61.04,224.45-139.36,224.45-139.36s72.27-60.57,125.51-56.81c8.09,0.57,14.69,1.92,19.08,3
	c-40.66,23.93-93.18,49.87-87.39,75.52c8.54,37.89,130.59,14.19,206.17,100.98c9.46,10.86,36.83,42.3,39.97,79.95
	C899.38,732.12,710.3,842.21,600.17,875.93z"/>
<path class="st5" d="M740.87,851.33l-128.6,74.24L510,984.62c-6.19,3.58-13.81,3.58-20,0c-48.69-28.11-88.85-51.11-133.93-77.06
	c-10.16-5.84-20.56-11.84-31.37-18.07c-32.7-18.86-69.08-39.95-113.42-65.79c-2.89-1.68-5.71-3.33-8.47-4.93l265.5,151.2
	c19.91,11.33,44.31,11.33,64.22,0l78.84-44.9L740.87,851.33z"/>
<linearGradient id="SVGID_00000116204014319856345440000003360350601639527811_" gradientUnits="userSpaceOnUse" x1="71.31" y1="694.6843" x2="928.69" y2="694.6843">
	<stop  offset="0" style="stop-color:#FBB672"/>
	<stop  offset="0.2358" style="stop-color:#E67C52"/>
</linearGradient>
<path style="fill:url(#SVGID_00000116204014319856345440000003360350601639527811_);" d="M351.6,476.4
	c-11.62-13.2-48.62-58.35-105-64.75c-6.15-0.7-12.18-0.89-18.06-0.67c-42.71,1.69-78.19,25.96-104.45,44.42
	c-18.44,12.96-35.89,25.22-52.36,36.83c-0.14,0.1-0.28,0.2-0.42,0.3v238.41c0.24-0.03,0.49-0.05,0.75-0.05c5.2,0,6.19,6.5,3.01,9.02
	c2.14,2.71,4.48,4.26,5.71,4.96c2.39,1.38,4.63,2.7,6.73,3.95c3.36,3.9,7.2,7.41,11.47,10.44c0.01,0,0.02,0.01,0.03,0.02
	c8.12,5,13.29,8.24,17.54,9.73c2.15,0.75,30.21,17.09,86.12,49.68l0.14,0.08l265.5,151.2c3.5,1.99,7.13,3.63,10.86,4.92
	c12.39,4.3,25.78,4.72,38.37,1.28c5.17-1.41,10.21-3.48,14.99-6.2l78.84-44.9l129.5-73.74l0.41-0.24l164.92-95.22
	c12.56-10.64,20.65-25.73,22.49-42.2v-8.75C765.12,617.38,470.66,611.63,351.6,476.4z"/>
<path class="st3" d="M928.69,704.92v8.75c-1.84,16.47-9.93,31.56-22.49,42.2l-164.92,95.22l-129.01,74.48
	c-0.3-0.16-0.6-0.33-0.9-0.5c-18.09-9.95-31.97-19.12-41.01-25.16C418.79,798.69,444.69,685.92,283.35,593.65
	c-55.27-31.61-103.34-44.12-110.25-84c-5.85-33.7,20.75-70.88,55.44-98.67c5.88-0.22,11.91-0.03,18.06,0.67
	c22.9,2.6,42.61,11.6,58.72,22.27c5.91,3.89,11.33,8.03,16.25,12.15c0.57,0.48,1.14,0.96,1.7,1.44
	c13.77,11.78,23.37,23.25,28.33,28.89c94.64,107.49,300.09,133.17,462.54,183.16c0.02,0,0.04,0.01,0.07,0.02
	c27.23,8.37,53.26,17.43,77.35,27.68C904.54,692.78,916.95,698.64,928.69,704.92z"/>
<path class="st7" d="M891.56,687.26c-17.54,16.49-39.9,33.37-67.84,46.83c-68.08,32.79-173.22,47.2-235.88-5.43
	c-13.55-11.38-7.22-10.87-32.21-38.66c-14.73-16.38-59.11-63.47-128.86-103.08c-66.37-37.7-123.88-50.57-147.08-90.6
	c-3.51-6.06-10.87-19.19-6.92-33.44c5.37-19.34,27.91-27.4,32.54-28.96c5.91,3.89,11.33,8.03,16.25,12.15
	c0.57,0.48,1.14,0.96,1.7,1.44c13.77,11.78,23.37,23.25,28.33,28.89c94.64,107.49,300.09,133.17,462.54,183.16
	c0.02,0,0.04,0.01,0.07,0.02C840.09,669.12,865.87,678.34,891.56,687.26z"/>
<path class="st7" d="M928.17,437.01c0.18,39.22,0.36,78.45,0.54,117.67c-19-36.46-41.42-56.06-58.63-67.27
	c-54.83-35.69-122.38-28.95-130.63-59.55c-1.15-4.27-2.24-12.43,0.63-20.98c3.92-11.69,13.14-19.95,23.42-25.85
	c22.11,9.74,52.21,23.72,106.84,40.26C894.52,428.6,914.69,433.76,928.17,437.01z"/>
<path class="st3" d="M-334.15,272.17h-41.38c-6.6,0-12-5.4-12-12v-41.38c0-6.6,5.4-12,12-12h41.38c6.6,0,12,5.4,12,12v41.38
	C-322.15,266.77-327.55,272.17-334.15,272.17z"/>
<path class="st8" d="M-334.15,360.48h-41.38c-6.6,0-12-5.4-12-12v-41.38c0-6.6,5.4-12,12-12h41.38c6.6,0,12,5.4,12,12v41.38
	C-322.15,355.08-327.55,360.48-334.15,360.48z"/>
<path class="st9" d="M-334.15,448.79h-41.38c-6.6,0-12-5.4-12-12V395.4c0-6.6,5.4-12,12-12h41.38c6.6,0,12,5.4,12,12v41.38
	C-322.15,443.39-327.55,448.79-334.15,448.79z"/>
<path class="st10" d="M-334.15,537.09h-41.38c-6.6,0-12-5.4-12-12v-41.38c0-6.6,5.4-12,12-12h41.38c6.6,0,12,5.4,12,12v41.38
	C-322.15,531.69-327.55,537.09-334.15,537.09z"/>
<path class="st2" d="M-333.15,625.4h-41.38c-6.6,0-12-5.4-12-12v-41.38c0-6.6,5.4-12,12-12h41.38c6.6,0,12,5.4,12,12v41.38
	C-321.15,620-326.55,625.4-333.15,625.4z"/>
<path class="st11" d="M-333.15,713.71h-41.38c-6.6,0-12-5.4-12-12v-41.38c0-6.6,5.4-12,12-12h41.38c6.6,0,12,5.4,12,12v41.38
	C-321.15,708.31-326.55,713.71-333.15,713.71z"/>
<path class="st12" d="M-333.15,802.02h-41.38c-6.6,0-12-5.4-12-12v-41.38c0-6.6,5.4-12,12-12h41.38c6.6,0,12,5.4,12,12v41.38
	C-321.15,796.62-326.55,802.02-333.15,802.02z"/>
<path class="st13" d="M-334.15,95.55h-41.38c-6.6,0-12-5.4-12-12V42.17c0-6.6,5.4-12,12-12h41.38c6.6,0,12,5.4,12,12v41.38
	C-322.15,90.15-327.55,95.55-334.15,95.55z"/>
<path class="st14" d="M-334.15,183.86h-41.38c-6.6,0-12-5.4-12-12v-41.38c0-6.6,5.4-12,12-12h41.38c6.6,0,12,5.4,12,12v41.38
	C-322.15,178.46-327.55,183.86-334.15,183.86z"/>
<path class="st10" d="M802.34,744.73c0,0-15.21-18.51-36.83-32.9c-43.87-29.2-169.85-72.83-310.38-71.03
	c-17.03,0.22-57.36,1.4-110.94-7.46c-26.21-4.34-23.97-6.11-48.13-9.86c-55.86-8.67-98.7-6.67-145.7-4.2
	c-29.09,1.52-55.53,2.91-79.58,4.2v104.08c0,1.16,0.11,2.31,0.31,3.43c0.31-0.05,0.63-0.09,0.98-0.09c5.2,0,6.19,6.5,3.01,9.02
	c2.14,2.71,4.48,4.26,5.71,4.96c19.46,11.24,28.51,17.99,35.24,20.35c2.26,0.79,33.09,18.76,94.73,54.69
	c124.08,72.32,185.89,107.32,278.72,160.92c6.19,3.57,13.81,3.57,20,0l321.09-185.38C824.08,777.17,814.53,759.82,802.34,744.73z"/>
<path class="st9" d="M928.17,654.82v72.73c0,7.14-3.82,13.75-10,17.32l-34.19,19.74l-53.42,30.84L509.47,980.83
	c-6.19,3.57-13.81,3.57-20,0c-60.3-34.82-107.51-61.79-167.21-96.24c4.91-9.6,10.08-23.68,7.21-39.1
	c-12.55-67.47-164.31-81.2-162.57-99.11c1.92-19.81,188.61-13.83,326.73-20.46C675.23,717.2,824.16,684.22,928.17,654.82z"/>
<path class="st15" d="M143.64,483.12L143.64,483.12z"/>
<path class="st1" d="M1036.85,930.89c-12.9,58.12-43.52,105.8-51.73,118.05c-149.92,223.61-591.04,210.37-862.78,35
	c-129.59-83.64-307.33-260.08-266-400.76c10.09-34.37,79.08-85.81,214.97-181.63v238.81c0,3.58,0.95,7.01,2.68,10
	c2.44,4.23,5.77,6.43,7.32,7.32c19.46,11.24,28.51,17.99,35.24,20.35c2.26,0.79,33.08,18.76,94.73,54.69
	c44.34,25.84,80.72,46.93,113.42,65.79c10.81,6.23,21.21,12.23,31.37,18.07c45.08,25.95,85.24,48.95,133.93,77.06
	c6.19,3.58,13.81,3.58,20,0l102.27-59.05l306.42-176.91c6.19-3.57,10-10.17,10-17.32v-26.42c47.54,25.44,84.02,57.8,101.93,102.24
	C1046.04,854.44,1044.88,894.69,1036.85,930.89z"/>
<circle class="st11" cx="499.47" cy="272.52" r="60.56"/>
<g id="XMLID_00000158725560953782811090000009757743874779447696_">
	<g>
		<path class="st8" d="M883.98,764.61l-53.42,30.84L517.54,976.17c-12.59,3.44-25.98,3.02-38.37-1.28
			c-87.25-50.33-148.99-85.37-268.42-154.98c-61.64-35.93-92.47-53.9-94.73-54.69c-5.9-2.07-13.59-7.52-28.51-16.4
			c-10.03-11.61-15.78-26.6-15.78-42.42v-31.98c1.4,0.1,3.25,0.24,5.41,0.45c57.61,5.63,97.94,34.95,109.36,42.68
			c46.41,31.44,113.14,43.71,176.43,55.35c143.6,26.42,294.81-8.63,347.1-20.75c12.56-2.91,47.13-11.35,92.31-7.42
			C838.68,747.89,867.23,757.77,883.98,764.61z"/>
		<path class="st8" d="M479.17,974.89c12.39,4.3,25.78,4.72,38.37,1.28l-8.07,4.66c-6.19,3.57-13.81,3.57-20,0
			C485.99,978.82,482.56,976.84,479.17,974.89z"/>
		<path class="st16" d="M71.73,706.4c0,15.82,5.75,30.81,15.78,42.42c-2.1-1.25-4.34-2.57-6.73-3.95c-1.23-0.71-3.58-2.25-5.72-4.96
			c3.2-2.51,2.21-9.02-3-9.02c-0.34,0-0.67,0.04-0.98,0.09c-0.19-1.12-0.3-2.27-0.3-3.43v-53.2c0.17,0.01,0.34,0.02,0.53,0.04
			c0.13,0.01,0.27,0.02,0.42,0.03V706.4z"/>
	</g>
	<g>
		<path class="st17" d="M71.73,674.42V293.56c0-23.32,12.51-44.84,32.77-56.38L468.31,29.99c19.91-11.33,44.31-11.33,64.22,0
			l363.81,207.19c20.26,11.54,32.77,33.06,32.77,56.38V706.4c0,2.45-0.14,4.87-0.42,7.27c-1.84,16.47-9.93,31.56-22.49,42.2
			c-3.03,2.58-6.33,4.9-9.86,6.91l-155.06,88.31l-0.41,0.24l-129.5,73.74l-78.84,44.9c-4.78,2.72-9.82,4.79-14.99,6.2
			c-12.59,3.44-25.98,3.02-38.37-1.28c-3.73-1.29-7.36-2.93-10.86-4.92l-265.5-151.2l-0.14-0.08l-98.17-55.91
			c-1.9-1.08-3.73-2.25-5.49-3.5c-0.01-0.01-0.02-0.02-0.03-0.02c-4.27-3.03-8.11-6.54-11.47-10.44
			c-10.03-11.61-15.78-26.6-15.78-42.42V674.42z"/>
	</g>
</g>
</svg>
