<?xml version="1.0" encoding="utf-8"?>
<!-- Generator: Adobe Illustrator 26.0.3, SVG Export Plug-In . SVG Version: 6.00 Build 0)  -->
<svg version="1.1" id="Layer_1" xmlns="http://www.w3.org/2000/svg" xmlns:xlink="http://www.w3.org/1999/xlink" x="0px" y="0px"
	 viewBox="0 0 1000 1000" style="enable-background:new 0 0 1000 1000;" xml:space="preserve">
<style type="text/css">
	.st0{fill:url(#SVGID_1_);stroke:#1C75BC;stroke-width:10;stroke-miterlimit:10;}
	.st1{display:none;fill:none;}
	.st2{fill:#E67C52;}
	.st3{fill:#4AA53A;}
	.st4{fill:url(#SVGID_00000058572232859056140200000008936786403484309944_);}
	.st5{fill:url(#SVGID_00000011728868383493619270000002609092764663008148_);}
	.st6{fill:#60B252;}
	.st7{fill:#369133;}
	.st8{fill:#6FB24B;}
	.st9{fill:#74C14C;}
	.st10{fill:#7FD353;}
	.st11{fill:#85E553;}
	.st12{fill:#F6D779;}
	.st13{fill:#62BAEF;}
	.st14{display:none;fill:#FBB672;}
	.st15{fill:none;stroke:#1C75BC;stroke-width:10;stroke-miterlimit:10;}
</style>
<linearGradient id="SVGID_1_" gradientUnits="userSpaceOnUse" x1="500.42" y1="21.5002" x2="500.42" y2="978.4598">
	<stop  offset="0" style="stop-color:#62BAEF"/>
	<stop  offset="1" style="stop-color:#49AA87"/>
</linearGradient>
<path class="st0" d="M929.1,293.6v412.8c0,23.3-12.5,44.8-32.8,56.4L532.5,970c-10.9,6.2-23.1,9-35.1,8.4c-10-0.5-20-3.3-29.1-8.4
	L104.5,762.8c-20.3-11.5-32.8-33.1-32.8-56.4V293.6c0-23.3,12.5-44.8,32.8-56.4L468.3,30c19.9-11.3,44.3-11.3,64.2,0l363.8,207.2
	C916.6,248.7,929.1,270.2,929.1,293.6z"/>
<path class="st1" d="M1304.9,1255.2c-112.6,310.5-759.1,430.4-1178.1,195.7c-169.2-94.8-399.9-302.5-361.9-478.6
	c21.4-99.2,114.3-124.4,283-201.2c11.2-5.1,22.8-10.5,34.7-16.1c18.2,10.6,26.8,17,33.3,19.2c2.3,0.8,33.1,18.8,94.7,54.7
	c43.5,25.3,79.3,46.1,111.5,64.7c59.7,34.5,106.9,61.4,167.2,96.2c6.2,3.6,13.8,3.6,20,0l321.1-185.4l53.4-30.8l34.2-19.7
	c6.2-3.6,10-10.2,10-17.3V446c122.5,89.8,210.5,243.6,246.3,306.4C1257.9,898.3,1365.9,1087.2,1304.9,1255.2z"/>
<path class="st2" d="M-130.5,908.3c-2.4-1.4-4.8-2.8-7.3-4.2C-135.3,905.5-132.9,906.9-130.5,908.3z"/>
<path class="st3" d="M928.2,437v290.5c0,7.1-3.8,13.8-10,17.3L884,764.6l-53.4,30.8L509.5,980.8c-6.2,3.6-13.8,3.6-20,0
	C429.2,946,382,919,322.3,884.6c-32.2-18.6-68-39.3-111.5-64.7C149.1,784,118.3,766,116,765.2c-6.5-2.3-15.2-8.7-33.3-19.2
	c103.8-48.9,233.2-118,389.2-231.9c170.3-124.4,206.5-158.4,259.9-144.9c10,2.5,19.7,6.6,31.8,11.9c22.1,9.7,52.2,23.7,106.8,40.3
	C894.5,428.6,914.7,433.8,928.2,437z"/>
<linearGradient id="SVGID_00000017491493683584471380000008486510917345186986_" gradientUnits="userSpaceOnUse" x1="82.67" y1="630.417" x2="890.7926" y2="630.417">
	<stop  offset="0.2894" style="stop-color:#60B252"/>
	<stop  offset="1" style="stop-color:#369133"/>
</linearGradient>
<path style="fill:url(#SVGID_00000017491493683584471380000008486510917345186986_);" d="M600.2,875.9
	c-93.7,28.7-198,22.9-301.1-4.8c-26.1-15.1-55-31.8-88.3-51.3C149.1,784,118.3,766,116,765.2c-6.5-2.3-15.2-8.7-33.3-19.2
	c35.6-43,92.5-100.2,176.7-142.2c45-22.5,47.2-15.3,103.3-41.4C493.8,501.3,587.1,423,587.1,423s72.3-60.6,125.5-56.8
	c8.1,0.6,14.7,1.9,19.1,3c-40.7,23.9-93.2,49.9-87.4,75.5c8.5,37.9,130.6,14.2,206.2,101c9.5,10.9,36.8,42.3,40,80
	C899.4,732.1,710.3,842.2,600.2,875.9z"/>
<path class="st1" d="M740.9,851.3l-128.6,74.2l-102.3,59c-6.2,3.6-13.8,3.6-20,0c-48.7-28.1-88.9-51.1-133.9-77.1
	c-10.2-5.8-20.6-11.8-31.4-18.1c-32.7-18.9-69.1-40-113.4-65.8c-2.9-1.7-5.7-3.3-8.5-4.9L468.3,970c19.9,11.3,44.3,11.3,64.2,0
	l78.8-44.9L740.9,851.3z"/>
<linearGradient id="SVGID_00000175315287422419620630000011640841788120839064_" gradientUnits="userSpaceOnUse" x1="76.73" y1="694.6616" x2="928.69" y2="694.6616">
	<stop  offset="0" style="stop-color:#60B252"/>
	<stop  offset="8.242285e-02" style="stop-color:#369133"/>
</linearGradient>
<path style="fill:url(#SVGID_00000175315287422419620630000011640841788120839064_);" d="M928.7,704.9v8.8
	c-1.8,16.5-9.9,31.6-22.5,42.2l-164.9,95.2l-0.4,0.2l-129.5,73.7L532.5,970c-4.8,2.7-9.8,4.8-15,6.2c-5,1.4-10.1,2.1-15.2,2.3
	c-10-0.5-20-3.3-29.1-8.4L109.5,762.8c-20.3-11.5-32.8-33.1-32.8-56.4V488.7c15-10.5,30.8-21.6,47.4-33.3
	c26.3-18.5,61.7-42.7,104.4-44.4c5.9-0.2,11.9,0,18.1,0.7c56.4,6.4,93.4,51.5,105,64.8C470.7,611.6,765.1,617.4,928.7,704.9z"/>
<path class="st3" d="M928.7,704.9v8.8c-1.8,16.5-9.9,31.6-22.5,42.2l-164.9,95.2l-129,74.5c-0.3-0.2-0.6-0.3-0.9-0.5
	c-18.1-10-32-19.1-41-25.2c-151.6-101.2-125.7-214-287-306.3c-55.3-31.6-103.3-44.1-110.2-84c-5.9-33.7,20.8-70.9,55.4-98.7
	c5.9-0.2,11.9,0,18.1,0.7c22.9,2.6,42.6,11.6,58.7,22.3c5.9,3.9,11.3,8,16.2,12.1c0.6,0.5,1.1,1,1.7,1.4
	c13.8,11.8,23.4,23.2,28.3,28.9c94.6,107.5,300.1,133.2,462.5,183.2c0,0,0,0,0.1,0c27.2,8.4,53.3,17.4,77.3,27.7
	C904.5,692.8,917,698.6,928.7,704.9z"/>
<path class="st6" d="M891.6,687.3c-17.5,16.5-39.9,33.4-67.8,46.8c-68.1,32.8-173.2,47.2-235.9-5.4c-13.5-11.4-7.2-10.9-32.2-38.7
	c-14.7-16.4-59.1-63.5-128.9-103.1c-66.4-37.7-123.9-50.6-147.1-90.6c-3.5-6.1-10.9-19.2-6.9-33.4c5.4-19.3,27.9-27.4,32.5-29
	c5.9,3.9,11.3,8,16.2,12.1c0.6,0.5,1.1,1,1.7,1.4c13.8,11.8,23.4,23.2,28.3,28.9c94.6,107.5,300.1,133.2,462.5,183.2c0,0,0,0,0.1,0
	C840.1,669.1,865.9,678.3,891.6,687.3z"/>
<path class="st6" d="M928.2,437c0.2,39.2,0.4,78.5,0.5,117.7c-19-36.5-41.4-56.1-58.6-67.3c-54.8-35.7-122.4-29-130.6-59.5
	c-1.2-4.3-2.2-12.4,0.6-21c3.9-11.7,13.1-20,23.4-25.9c22.1,9.7,52.2,23.7,106.8,40.3C894.5,428.6,914.7,433.8,928.2,437z"/>
<path class="st7" d="M-334.1,272.2h-41.4c-6.6,0-12-5.4-12-12v-41.4c0-6.6,5.4-12,12-12h41.4c6.6,0,12,5.4,12,12v41.4
	C-322.1,266.8-327.5,272.2-334.1,272.2z"/>
<path class="st8" d="M-334.1,360.5h-41.4c-6.6,0-12-5.4-12-12v-41.4c0-6.6,5.4-12,12-12h41.4c6.6,0,12,5.4,12,12v41.4
	C-322.1,355.1-327.5,360.5-334.1,360.5z"/>
<path class="st9" d="M-334.1,448.8h-41.4c-6.6,0-12-5.4-12-12v-41.4c0-6.6,5.4-12,12-12h41.4c6.6,0,12,5.4,12,12v41.4
	C-322.1,443.4-327.5,448.8-334.1,448.8z"/>
<path class="st10" d="M-334.1,537.1h-41.4c-6.6,0-12-5.4-12-12v-41.4c0-6.6,5.4-12,12-12h41.4c6.6,0,12,5.4,12,12v41.4
	C-322.1,531.7-327.5,537.1-334.1,537.1z"/>
<path class="st11" d="M-333.1,625.4h-41.4c-6.6,0-12-5.4-12-12V572c0-6.6,5.4-12,12-12h41.4c6.6,0,12,5.4,12,12v41.4
	C-321.1,620-326.5,625.4-333.1,625.4z"/>
<path class="st12" d="M-333.1,713.7h-41.4c-6.6,0-12-5.4-12-12v-41.4c0-6.6,5.4-12,12-12h41.4c6.6,0,12,5.4,12,12v41.4
	C-321.1,708.3-326.5,713.7-333.1,713.7z"/>
<path class="st3" d="M-333.1,802h-41.4c-6.6,0-12-5.4-12-12v-41.4c0-6.6,5.4-12,12-12h41.4c6.6,0,12,5.4,12,12V790
	C-321.1,796.6-326.5,802-333.1,802z"/>
<path class="st13" d="M-334.1,95.6h-41.4c-6.6,0-12-5.4-12-12V42.2c0-6.6,5.4-12,12-12h41.4c6.6,0,12,5.4,12,12v41.4
	C-322.1,90.2-327.5,95.6-334.1,95.6z"/>
<path class="st6" d="M-334.1,183.9h-41.4c-6.6,0-12-5.4-12-12v-41.4c0-6.6,5.4-12,12-12h41.4c6.6,0,12,5.4,12,12v41.4
	C-322.1,178.5-327.5,183.9-334.1,183.9z"/>
<path class="st10" d="M802.3,744.7c0,0-15.2-18.5-36.8-32.9c-43.9-29.2-169.8-72.8-310.4-71c-17,0.2-57.4,1.4-110.9-7.5
	c-26.2-4.3-24-6.1-48.1-9.9c-55.9-8.7-98.7-6.7-145.7-4.2c-29.1,1.5-55.5,2.9-79.6,4.2v104.1c0,1.2,0.1,2.3,0.3,3.4
	c0.3,0,0.6-0.1,1-0.1c5.2,0,6.2,6.5,3,9c2.1,2.7,4.5,4.3,5.7,5c19.5,11.2,28.5,18,35.2,20.3c2.3,0.8,33.1,18.8,94.7,54.7
	c124.1,72.3,185.9,107.3,278.7,160.9c6.2,3.6,13.8,3.6,20,0l321.1-185.4C824.1,777.2,814.5,759.8,802.3,744.7z"/>
<path class="st9" d="M928.2,654.8v72.7c0,7.1-3.8,13.8-10,17.3L884,764.6l-53.4,30.8L509.5,980.8c-6.2,3.6-13.8,3.6-20,0
	C429.2,946,382,919,322.3,884.6c4.9-9.6,10.1-23.7,7.2-39.1c-12.5-67.5-164.3-81.2-162.6-99.1c1.9-19.8,188.6-13.8,326.7-20.5
	C675.2,717.2,824.2,684.2,928.2,654.8z"/>
<path class="st1" d="M1036.8,930.9c-12.9,58.1-43.5,105.8-51.7,118.1c-149.9,223.6-591,210.4-862.8,35
	c-129.6-83.6-307.3-260.1-266-400.8c10.1-34.4,79.1-85.8,215-181.6v238.8c0,3.6,0.9,7,2.7,10c2.4,4.2,5.8,6.4,7.3,7.3
	c19.5,11.2,28.5,18,35.2,20.3c2.3,0.8,33.1,18.8,94.7,54.7c44.3,25.8,80.7,46.9,113.4,65.8c10.8,6.2,21.2,12.2,31.4,18.1
	c45.1,26,85.2,49,133.9,77.1c6.2,3.6,13.8,3.6,20,0l102.3-59l306.4-176.9c6.2-3.6,10-10.2,10-17.3v-26.4
	c47.5,25.4,84,57.8,101.9,102.2C1046,854.4,1044.9,894.7,1036.8,930.9z"/>
<circle class="st12" cx="499.5" cy="272.5" r="60.6"/>
<g id="XMLID_00000158725560953782811090000009757743874779447696_">
	<g>
		<g id="XMLID_00000160183406495811144820000000786132332058666672_">
			<g>
				<path class="st8" d="M479.2,974.9c12.4,4.3,25.8,4.7,38.4,1.3l-8.1,4.7c-6.2,3.6-13.8,3.6-20,0
					C486,978.8,482.6,976.8,479.2,974.9z"/>
				<path class="st8" d="M71.7,674.4c1.4,0.1,3.2,0.2,5.4,0.5c57.6,5.6,97.9,35,109.4,42.7c46.4,31.4,113.1,43.7,176.4,55.4
					c143.6,26.4,294.8-8.6,347.1-20.8c12.6-2.9,47.1-11.4,92.3-7.4c36.3,3.2,64.9,13,81.6,19.9l-53.4,30.8l-313,180.7
					c-12.6,3.4-26,3-38.4-1.3c-87.2-50.3-149-85.4-268.4-155C149.1,784,118.3,766,116,765.2c-5.9-2.1-13.6-7.5-28.5-16.4
					c-10-11.6-15.8-26.6-15.8-42.4V674.4z"/>
				<path class="st8" d="M71.7,706.4c0,15.8,5.8,30.8,15.8,42.4c-2.1-1.2-4.3-2.6-6.7-4c-1.2-0.7-3.6-2.2-5.7-5c3.2-2.5,2.2-9-3-9
					c-0.3,0-0.7,0-1,0.1c-0.2-1.1-0.3-2.3-0.3-3.4v-53.2c0.2,0,0.3,0,0.5,0c0.1,0,0.3,0,0.4,0V706.4z"/>
			</g>
			<g>
			</g>
		</g>
	</g>
</g>
<path class="st14" d="M143.6,483.1"/>
<path class="st15" d="M104.1,237.2L467.9,30c19.9-11.3,44.3-11.3,64.2,0l363.8,207.2c20.3,11.5,32.8,33.1,32.8,56.4v412.8
	c0,23.3-12.5,44.8-32.8,56.4L532.1,970c-19.9,11.3-44.3,11.3-64.2,0L104.1,762.8c-20.3-11.5-32.8-33.1-32.8-56.4V293.6
	C71.3,270.3,83.8,248.8,104.1,237.2z"/>
</svg>
